<svg version="1.0" xmlns="http://www.w3.org/2000/svg"
 width="401.000000pt" height="443.000000pt" viewBox="0 0 401.000000 443.000000"
 preserveAspectRatio="xMidYMid meet">

<g transform="translate(0.000000,443.000000) scale(0.100000,-0.100000)"
fill="#0369a1" stroke="none">
<path d="M340 3685 l0 -445 88 0 c125 0 235 -34 301 -93 74 -68 137 -216 181
-427 66 -321 119 -432 234 -492 55 -28 175 -35 247 -15 160 47 301 191 497
507 143 230 235 369 259 392 l22 20 20 -33 c66 -108 130 -367 156 -630 l7 -65
-84 -61 c-300 -218 -561 -484 -742 -758 -66 -99 -157 -272 -196 -372 l-20 -53
115 0 114 0 49 103 c129 265 366 550 652 784 l115 94 3 -113 c6 -234 -46 -581
-122 -813 -115 -349 -312 -602 -532 -684 -82 -31 -135 -28 -179 10 -35 31 -65
103 -65 156 0 23 -2 23 -111 23 l-111 0 7 -56 c14 -114 66 -227 132 -284 118
-104 285 -115 456 -29 272 137 475 402 603 784 89 266 132 545 142 925 l7 235
140 70 c77 39 199 92 271 118 132 49 385 127 410 127 12 0 14 -129 14 -780 l0
-780 -446 -2 -447 -3 -43 -104 c-24 -57 -44 -106 -44 -108 0 -1 270 -3 600 -3
l600 0 0 1030 0 1030 -22 -5 c-13 -3 -72 -17 -133 -30 -266 -62 -573 -164
-795 -264 -125 -57 -130 -58 -134 -38 -3 12 -14 83 -26 156 -40 253 -121 477
-206 571 -68 75 -158 98 -240 61 -66 -30 -170 -163 -309 -396 -97 -162 -214
-332 -275 -398 -94 -102 -183 -147 -247 -126 -48 15 -75 83 -124 304 -73 331
-116 433 -239 556 -82 83 -162 129 -266 152 l-59 14 -3 231 -2 232 1430 0
1430 0 0 -475 c0 -261 3 -475 8 -475 4 0 53 10 110 22 l102 23 0 562 0 563
-1650 0 -1650 0 0 -445z"/>
<path d="M358 3124 c-17 -5 -18 -69 -18 -1150 l0 -1144 789 0 789 0 45 68 c25
37 54 86 66 109 l21 43 -745 0 -745 0 0 1029 c0 663 -3 1032 -10 1036 -13 8
-171 15 -192 9z"/>
</g>
</svg>
